{
	"asset":{
		"generator":"Khronos glTF Blender I/O v4.0.44",
		"version":"2.0"
	},
	"scene":0,
	"scenes":[
		{
			"name":"Scene",
			"nodes":[
				0
			]
		}
	],
	"nodes":[
		{
			"mesh":0,
			"name":"Cube",
			"translation":[
				0.0006016269326210022,
				-0.12728430330753326,
				-0.08912346512079239
			]
		}
	],
	"materials":[
		{
			"doubleSided":true,
			"name":"Material",
			"pbrMetallicRoughness":{
				"baseColorFactor":[
					0.12709392607212067,
					0.8001965880393982,
					0.012318185530602932,
					1
				],
				"metallicFactor":0,
				"roughnessFactor":0.5
			}
		}
	],
	"meshes":[
		{
			"name":"Cube.001",
			"primitives":[
				{
					"attributes":{
						"POSITION":0,
						"NORMAL":1,
						"TEXCOORD_0":2
					},
					"indices":3,
					"material":0
				}
			]
		}
	],
	"accessors":[
		{
			"bufferView":0,
			"componentType":5126,
			"count":1800,
			"max":[
				1.8135672807693481,
				4.9522528648376465,
				0.36705461144447327
			],
			"min":[
				-0.015311547555029392,
				0.1224702000617981,
				-0.32529115676879883
			],
			"type":"VEC3"
		},
		{
			"bufferView":1,
			"componentType":5126,
			"count":1800,
			"type":"VEC3"
		},
		{
			"bufferView":2,
			"componentType":5126,
			"count":1800,
			"type":"VEC2"
		},
		{
			"bufferView":3,
			"componentType":5123,
			"count":7164,
			"type":"SCALAR"
		}
	],
	"bufferViews":[
		{
			"buffer":0,
			"byteLength":21600,
			"byteOffset":0,
			"target":34962
		},
		{
			"buffer":0,
			"byteLength":21600,
			"byteOffset":21600,
			"target":34962
		},
		{
			"buffer":0,
			"byteLength":14400,
			"byteOffset":43200,
			"target":34962
		},
		{
			"buffer":0,
			"byteLength":14328,
			"byteOffset":57600,
			"target":34963
		}
	],
	"buffers":[
		{
			"byteLength":71928,
			"uri":"BASEmodel.bin"
		}
	]
}
